<?xml version="1.0" encoding="UTF-8"?>
<svg xmlns="http://www.w3.org/2000/svg" width="1042" height="326" viewBox="0 0 1042 326" fill="none">
  <g clip-path="url(#clip0_1_2)">
    <g opacity="0.3">
      <path d="M159.91 320.47C117.2 320.47 77.05 303.84 46.85 273.64C16.65 243.44 0.0200195 203.29 0.0200195 160.58C0.0200195 117.87 16.65 77.72 46.85 47.52C77.05 17.32 117.21 0.690002 159.91 0.690002C202.61 0.690002 242.77 17.32 272.97 47.52C303.17 77.72 319.8 117.87 319.8 160.58C319.8 203.29 303.17 243.44 272.97 273.64C242.77 303.84 202.62 320.47 159.91 320.47ZM161.36 317.4C169.24 316.13 177.01 304.47 183.36 284.36C176.15 285.19 168.76 285.64 161.36 285.69V317.4ZM136.46 284.36C142.81 304.47 150.57 316.12 158.46 317.4V285.69C151.06 285.64 143.67 285.19 136.46 284.36ZM114.05 280.46C124.39 299.7 136.72 311.89 149.96 315.99C143.83 310.36 138.15 299.4 133.37 283.95C126.74 283.08 120.25 281.91 114.05 280.46ZM186.45 283.95C181.67 299.41 175.99 310.36 169.86 315.99C183.09 311.89 195.43 299.69 205.77 280.46C199.57 281.91 193.09 283.08 186.45 283.95ZM209.45 279.53C200.53 296.81 189.87 309.1 178.34 315.45C202.96 309.84 225.58 293.04 242.75 267.53C232.25 272.53 221.06 276.56 209.45 279.53ZM77.06 267.53C94.23 293.04 116.85 309.84 141.47 315.45C129.94 309.1 119.27 296.81 110.36 279.53C98.75 276.56 87.56 272.53 77.06 267.53ZM7.67002 198.81C14.7 226.94 29.34 252.38 50.42 272.93C72.03 294 98.61 308.16 127.76 314.23C106.31 305.68 86.77 288.52 72 265.03C41.2 249.1 18.73 225.88 7.67002 198.81ZM247.81 265.03C233.04 288.52 213.51 305.68 192.05 314.23C221.2 308.17 247.77 294.01 269.39 272.93C290.47 252.38 305.11 226.94 312.14 198.81C301.07 225.88 278.61 249.1 247.81 265.03ZM161.36 282.77C169.03 282.72 176.74 282.22 184.3 281.3C188.31 267.76 191.57 251.39 193.97 232.61C183.24 233.69 172.27 234.25 161.36 234.3V282.78V282.77ZM135.51 281.3C143.07 282.22 150.78 282.72 158.45 282.77V234.29C147.53 234.24 136.57 233.68 125.84 232.6C128.25 251.38 131.5 267.75 135.51 281.29V281.3ZM112.23 277.01C118.77 278.64 125.57 279.94 132.46 280.89C131.66 278.16 130.95 275.56 130.3 272.97C127.29 261.01 124.79 247.33 122.88 232.3C113.56 231.28 104.4 229.86 95.63 228.08C99.68 246.69 105.26 263.14 112.23 277.01ZM196.94 232.3C195.02 247.34 192.53 261.02 189.52 272.97C188.87 275.56 188.16 278.16 187.36 280.89C194.25 279.94 201.05 278.63 207.59 277.01C214.56 263.15 220.14 246.69 224.19 228.08C215.42 229.86 206.26 231.28 196.94 232.3ZM227.26 227.44C223.34 245.76 217.93 262.1 211.18 276.06C223.37 272.77 235.01 268.31 245.79 262.8C254.54 248.71 261.33 232.89 266 215.74C254.41 220.48 241.39 224.41 227.26 227.44ZM74.03 262.8C84.81 268.31 96.45 272.77 108.64 276.06C101.88 262.1 96.48 245.76 92.56 227.44C78.44 224.41 65.41 220.48 53.82 215.74C58.48 232.89 65.28 248.72 74.03 262.8ZM4.52002 177.95C10.58 210.98 33.78 240.61 69.03 260.16C61.02 246.35 54.77 230.94 50.45 214.3C27.84 204.51 11.79 191.75 4.52002 177.95ZM269.37 214.3C265.04 230.94 258.8 246.35 250.79 260.16C286.04 240.61 309.24 210.99 315.3 177.95C308.03 191.76 291.98 204.51 269.37 214.3ZM161.36 231.39C172.4 231.34 183.49 230.76 194.35 229.66C196.93 208.47 198.26 185.73 198.32 162.04H161.37V231.39H161.36ZM125.47 229.65C136.33 230.75 147.42 231.34 158.46 231.38V162.03H121.51C121.56 185.72 122.9 208.46 125.48 229.65H125.47ZM94.99 225.01C103.84 226.84 113.09 228.29 122.51 229.34C119.96 208.27 118.64 185.64 118.59 162.03H88.68C88.77 183.91 90.89 205.09 94.99 225.01ZM201.23 162.03C201.18 185.64 199.86 208.27 197.31 229.34C206.75 228.29 216 226.84 224.83 225.01C228.93 205.1 231.05 183.92 231.14 162.03H201.23ZM52.94 212.29C64.58 217.2 77.69 221.26 91.92 224.37C87.92 204.62 85.86 183.65 85.77 162.03H46.61C46.72 179.21 48.85 196.12 52.94 212.29ZM234.05 162.03C233.96 183.65 231.89 204.61 227.9 224.37C242.13 221.26 255.24 217.2 266.88 212.29C270.97 196.12 273.1 179.21 273.21 162.03H234.05ZM276.12 162.03C276.01 178.66 274.03 195.07 270.22 210.83C299.5 197.75 315.99 180.48 316.82 162.03H276.12ZM2.99002 162.03C3.82002 180.48 20.32 197.75 49.59 210.83C45.78 195.06 43.8 178.66 43.69 162.03H2.99002ZM316.83 159.12C316 140.67 299.5 123.4 270.23 110.32C274.04 126.08 276.02 142.49 276.13 159.12H316.83ZM273.21 159.12C273.1 141.94 270.97 125.03 266.88 108.86C255.24 103.95 242.13 99.89 227.9 96.78C231.9 116.54 233.97 137.5 234.05 159.12H273.21ZM231.14 159.12C231.05 137.24 228.93 116.06 224.83 96.14C215.99 94.32 206.74 92.86 197.31 91.81C199.86 112.87 201.18 135.51 201.23 159.12H231.14ZM198.32 159.12C198.27 135.44 196.93 112.69 194.35 91.5C183.49 90.4 172.4 89.81 161.36 89.77V159.12H198.31H198.32ZM158.45 159.12V89.77C147.41 89.82 136.32 90.4 125.46 91.5C122.88 112.69 121.55 135.44 121.49 159.12H158.44H158.45ZM118.59 159.12C118.64 135.51 119.96 112.88 122.51 91.81C113.07 92.86 103.82 94.31 94.99 96.14C90.89 116.05 88.77 137.24 88.68 159.12H118.59ZM85.76 159.12C85.85 137.5 87.92 116.54 91.91 96.78C77.68 99.89 64.57 103.95 52.93 108.86C48.84 125.03 46.71 141.94 46.6 159.12H85.76ZM43.69 159.12C43.8 142.49 45.78 126.08 49.59 110.32C20.31 123.4 3.82002 140.67 2.99002 159.12H43.69ZM269.37 106.86C291.98 116.65 308.03 129.41 315.3 143.21C309.24 110.18 286.04 80.55 250.79 61C258.8 74.81 265.05 90.22 269.37 106.86ZM69.03 61C33.78 80.55 10.58 110.17 4.52002 143.21C11.79 129.4 27.84 116.65 50.45 106.86C54.78 90.22 61.02 74.81 69.03 61ZM247.81 56.12C278.62 72.05 301.08 95.27 312.14 122.34C305.11 94.21 290.47 68.77 269.39 48.22C247.78 27.15 221.2 12.99 192.05 6.92C213.51 15.47 233.04 32.63 247.81 56.12ZM127.76 6.92C98.61 12.98 72.04 27.14 50.42 48.22C29.34 68.77 14.7 94.21 7.67002 122.34C18.74 95.27 41.2 72.05 72 56.12C86.77 32.63 106.3 15.47 127.76 6.92ZM227.26 93.71C241.38 96.74 254.4 100.67 266 105.41C261.34 88.26 254.54 72.43 245.79 58.35C235 52.84 223.37 48.38 211.18 45.09C217.94 59.04 223.34 75.39 227.26 93.71ZM74.03 58.35C65.28 72.43 58.48 88.26 53.82 105.41C65.41 100.67 78.43 96.74 92.56 93.71C96.48 75.39 101.89 59.04 108.64 45.09C96.45 48.38 84.82 52.83 74.03 58.35ZM196.94 88.86C206.27 89.88 215.43 91.3 224.19 93.08C220.14 74.47 214.56 58.02 207.59 44.15C201.05 42.52 194.25 41.22 187.36 40.27C188.16 43 188.87 45.6 189.52 48.19C192.53 60.15 195.03 73.83 196.94 88.86ZM112.23 44.15C105.26 58.02 99.67 74.47 95.63 93.08C104.4 91.3 113.56 89.88 122.88 88.86C124.8 73.83 127.29 60.15 130.3 48.19C130.95 45.6 131.66 43 132.46 40.27C125.57 41.22 118.77 42.52 112.23 44.15ZM161.36 86.86C172.26 86.91 183.23 87.47 193.97 88.55C191.56 69.77 188.31 53.4 184.3 39.86C176.75 38.94 169.04 38.44 161.36 38.39V86.87V86.86ZM135.51 39.85C131.5 53.39 128.24 69.77 125.84 88.54C136.57 87.46 147.54 86.9 158.45 86.85V38.37C150.77 38.43 143.06 38.92 135.51 39.84V39.85ZM209.45 41.62C221.06 44.59 232.25 48.62 242.75 53.62C225.58 28.11 202.95 11.31 178.34 5.7C189.88 12.05 200.54 24.33 209.46 41.62H209.45ZM141.48 5.7C116.86 11.31 94.24 28.11 77.07 53.62C87.57 48.62 98.76 44.59 110.37 41.62C119.28 24.34 129.95 12.05 141.48 5.7ZM149.96 5.16C136.73 9.26 124.39 21.46 114.05 40.7C120.24 39.25 126.72 38.08 133.37 37.21C138.15 21.75 143.83 10.8 149.96 5.17V5.16ZM186.45 37.2C193.09 38.07 199.58 39.24 205.77 40.69C195.43 21.45 183.1 9.26001 169.86 5.15001C175.98 10.78 181.67 21.74 186.45 37.19V37.2ZM161.36 35.47C168.76 35.52 176.15 35.97 183.36 36.8C177.01 16.69 169.24 5.04 161.36 3.76V35.47ZM158.45 3.76C150.57 5.03 142.8 16.69 136.45 36.8C143.65 35.97 151.04 35.52 158.45 35.47V3.76Z" fill="#FFFFFF"></path>
      <path d="M272.46 48.03C242.4 17.97 202.43 1.41003 159.91 1.41003C117.39 1.41003 77.43 17.97 47.36 48.03C17.3 78.09 0.73999 118.06 0.73999 160.58C0.73999 203.1 17.3 243.06 47.36 273.13C77.42 303.19 117.39 319.75 159.91 319.75C202.43 319.75 242.39 303.19 272.46 273.13C302.52 243.07 319.08 203.1 319.08 160.58C319.08 118.06 302.52 78.1 272.46 48.03ZM92.86 95.83C88.82 115.42 86.54 137.07 86.49 159.85H45.87C45.93 141.8 48.2 124.47 52.32 108.33C64.26 103.27 77.91 99.03 92.86 95.83ZM52.73 106.66C57.5 88.6 64.61 72.1 73.52 57.8C84.77 52.04 97.01 47.37 110.01 43.98C102.98 58.13 97.24 75.21 93.18 94.33C78.33 97.49 64.69 101.66 52.74 106.66H52.73ZM86.49 161.3C86.54 184.08 88.82 205.73 92.86 225.32C77.91 222.12 64.26 217.89 52.32 212.82C48.21 196.67 45.93 179.34 45.87 161.3H86.49ZM93.17 226.83C97.22 245.95 102.97 263.03 110 277.18C97.01 273.79 84.76 269.13 73.51 263.36C64.6 249.06 57.49 232.56 52.72 214.5C64.68 219.5 78.31 223.67 93.16 226.83H93.17ZM94.68 227.14C103.87 229.04 113.52 230.55 123.53 231.63C125.43 246.65 127.93 260.55 131.01 272.78C131.8 275.93 132.63 278.9 133.48 281.76C126.04 280.78 118.78 279.4 111.73 277.63C104.61 263.55 98.79 246.39 94.68 227.13V227.14ZM94.37 225.63C90.29 205.99 87.99 184.22 87.94 161.3H119.32C119.35 185.56 120.74 208.97 123.35 230.16C113.28 229.07 103.59 227.54 94.37 225.63ZM87.94 159.85C87.99 136.93 90.29 115.16 94.37 95.52C103.59 93.6 113.28 92.07 123.35 90.99C120.74 112.19 119.35 135.59 119.32 159.85H87.94ZM94.68 94.01C98.79 74.75 104.61 57.6 111.73 43.51C118.78 41.74 126.04 40.36 133.48 39.38C132.63 42.23 131.8 45.2 131.01 48.36C127.93 60.59 125.43 74.49 123.53 89.51C113.52 90.59 103.87 92.1 94.68 94V94.01ZM112.65 41.78C123.71 20.62 137.74 6.73004 153.18 3.58004C146.06 8.13004 139.46 19.84 133.93 37.87C126.66 38.81 119.55 40.1 112.65 41.78ZM110.86 42.25C98.12 45.48 86.09 49.94 74.98 55.44C93.19 27.33 118.57 8.30004 147.11 3.88004C133.33 9.15004 120.85 22.76 110.86 42.25ZM137.18 4.52003C111.56 11.59 88.99 30.41 72.52 56.68C38.53 74.2 13.62 101.62 4.53999 133.65C16.09 66.83 69.78 14.29 137.18 4.52003ZM71 59.09C62.43 73.32 55.64 89.63 51.06 107.38C26.2 118.09 8.82999 132.4 2.95999 148.49C7.61999 111.41 33.51 79.11 71 59.09ZM50.66 109.05C46.69 125.01 44.48 142.08 44.43 159.85H2.23999C2.67999 139.91 21.18 121.92 50.66 109.05ZM44.42 161.3C44.48 179.07 46.68 196.15 50.65 212.1C21.17 199.23 2.67 181.23 2.23 161.3H44.42ZM51.06 213.77C55.64 231.52 62.43 247.84 71 262.06C33.51 242.04 7.61999 209.74 2.95999 172.66C8.82999 188.75 26.2 203.06 51.06 213.77ZM4.53999 187.5C13.62 219.53 38.53 246.95 72.52 264.47C88.99 290.74 111.56 309.55 137.18 316.63C69.78 306.86 16.08 254.31 4.53999 187.5ZM74.99 265.71C86.1 271.21 98.13 275.67 110.87 278.9C120.87 298.39 133.34 311.99 147.12 317.27C118.59 312.84 93.21 293.81 74.99 265.71ZM112.65 279.38C119.55 281.06 126.67 282.36 133.93 283.29C139.45 301.32 146.06 313.03 153.17 317.58C137.73 314.43 123.71 300.54 112.64 279.38H112.65ZM159.18 318.22C150.2 317.56 141.95 304.67 135.42 283.5C143.17 284.44 151.11 284.93 159.18 284.96V318.22ZM159.18 283.51C150.94 283.48 142.85 282.95 134.94 281.97C130.83 268.22 127.43 251.14 124.99 231.79C136 232.93 147.44 233.55 159.17 233.57V283.51H159.18ZM159.18 232.12C147.37 232.1 135.88 231.47 124.81 230.32C122.25 209.48 120.79 186.06 120.77 161.3H159.18V232.12ZM159.18 159.85H120.77C120.8 135.09 122.25 111.67 124.81 90.83C135.88 89.68 147.37 89.05 159.18 89.03V159.85ZM159.18 87.58C147.44 87.6 136.01 88.23 125 89.36C127.44 70.01 130.84 52.93 134.95 39.18C142.85 38.2 150.94 37.67 159.19 37.64V87.58H159.18ZM159.18 36.19C151.11 36.22 143.17 36.71 135.42 37.65C141.95 16.48 150.2 3.60003 159.18 2.93003V36.19ZM225.14 94.01C215.95 92.11 206.3 90.6 196.29 89.52C194.39 74.5 191.89 60.6 188.81 48.36C188.02 45.21 187.19 42.24 186.34 39.38C193.78 40.36 201.04 41.74 208.09 43.51C215.21 57.59 221.03 74.75 225.14 94.01ZM209.82 43.98C222.81 47.37 235.06 52.03 246.31 57.8C255.22 72.1 262.33 88.6 267.1 106.66C255.14 101.66 241.51 97.49 226.66 94.33C222.6 75.21 216.86 58.13 209.83 43.98H209.82ZM225.45 95.52C229.53 115.16 231.83 136.93 231.88 159.85H200.5C200.47 135.59 199.08 112.18 196.47 90.99C206.54 92.08 216.23 93.61 225.45 95.52ZM231.87 161.3C231.82 184.22 229.52 205.99 225.44 225.63C216.22 227.55 206.53 229.08 196.46 230.16C199.07 208.96 200.46 185.56 200.49 161.3H231.87ZM225.14 227.14C221.03 246.4 215.21 263.55 208.09 277.64C201.04 279.41 193.78 280.79 186.34 281.77C187.19 278.92 188.02 275.95 188.81 272.79C191.89 260.56 194.39 246.66 196.29 231.63C206.3 230.55 215.95 229.04 225.14 227.14ZM226.64 226.83C241.49 223.67 255.13 219.5 267.08 214.5C262.31 232.56 255.2 249.06 246.29 263.36C235.04 269.13 222.8 273.79 209.8 277.18C216.83 263.03 222.57 245.95 226.63 226.83H226.64ZM226.96 225.32C231 205.73 233.28 184.08 233.33 161.3H273.95C273.89 179.35 271.62 196.68 267.5 212.82C255.56 217.88 241.91 222.12 226.96 225.32ZM233.33 159.85C233.28 137.07 231 115.42 226.96 95.83C241.91 99.03 255.56 103.26 267.5 108.33C271.61 124.48 273.89 141.81 273.95 159.85H233.33ZM269.16 109.05C298.64 121.92 317.14 139.92 317.58 159.85H275.39C275.33 142.08 273.13 125 269.16 109.05ZM268.75 107.38C264.17 89.63 257.38 73.31 248.81 59.09C286.3 79.11 312.19 111.41 316.85 148.49C310.98 132.4 293.61 118.09 268.75 107.38ZM315.28 133.66C306.2 101.63 281.29 74.21 247.3 56.68C230.83 30.41 208.26 11.6 182.64 4.52003C250.04 14.29 303.74 66.84 315.29 133.65L315.28 133.66ZM244.83 55.44C233.72 49.94 221.69 45.48 208.95 42.25C198.95 22.76 186.48 9.16004 172.7 3.88004C201.24 8.31004 226.61 27.34 244.83 55.44ZM207.17 41.78C200.27 40.1 193.15 38.8 185.89 37.87C180.37 19.84 173.76 8.13004 166.64 3.58004C182.08 6.73004 196.1 20.62 207.17 41.78ZM160.63 2.94003C169.61 3.60003 177.86 16.49 184.39 37.66C176.64 36.72 168.7 36.23 160.63 36.2V2.94003ZM160.63 37.64C168.87 37.67 176.96 38.2 184.87 39.18C188.98 52.93 192.38 70.01 194.82 89.36C183.8 88.22 172.37 87.6 160.63 87.58V37.64ZM160.63 89.03C172.44 89.05 183.93 89.68 195 90.83C197.56 111.67 199.02 135.09 199.04 159.85H160.62V89.03H160.63ZM160.63 161.3H199.05C199.02 186.06 197.57 209.48 195.01 230.32C183.94 231.47 172.45 232.1 160.64 232.12V161.3H160.63ZM160.63 233.57C172.37 233.55 183.8 232.92 194.82 231.79C192.38 251.14 188.98 268.22 184.87 281.97C176.97 282.95 168.88 283.48 160.63 283.51V233.57ZM160.63 284.96C168.7 284.93 176.64 284.44 184.39 283.5C177.86 304.67 169.61 317.55 160.63 318.22V284.96ZM185.89 283.29C193.16 282.35 200.27 281.06 207.17 279.38C196.11 300.54 182.08 314.43 166.64 317.58C173.76 313.03 180.36 301.32 185.89 283.29ZM208.95 278.9C221.69 275.67 233.72 271.21 244.83 265.71C226.62 293.82 201.24 312.85 172.7 317.27C186.48 312 198.96 298.39 208.95 278.9ZM182.63 316.63C208.25 309.56 230.82 290.74 247.29 264.47C281.28 246.95 306.19 219.53 315.27 187.49C303.72 254.31 250.03 306.85 182.63 316.62V316.63ZM248.81 262.06C257.38 247.83 264.17 231.52 268.75 213.77C293.61 203.06 310.98 188.75 316.85 172.66C312.19 209.74 286.3 242.04 248.81 262.06ZM269.16 212.11C273.13 196.15 275.34 179.08 275.39 161.31H317.58C317.14 181.25 298.64 199.24 269.16 212.11Z" fill="#FFFFFF"></path>
    </g>
    <path d="M136.81 320.47V101.85H180.45V145.9L176.41 139.44C181.26 125.16 189.07 114.86 199.85 108.53C210.62 102.2 223.55 99.03 238.64 99.03H251.98V140.65H232.99C217.9 140.65 205.71 145.3 196.42 154.59C187.13 163.89 182.48 177.16 182.48 194.4V320.48H136.82L136.81 320.47Z" fill="#FFFFFF"></path>
    <path d="M365.53 325.32C343.71 325.32 324.38 320.27 307.54 310.17C290.7 300.07 277.57 286.33 268.14 268.95C258.71 251.57 254 232.11 254 210.56C254 189.01 258.78 168.94 268.35 151.96C277.91 134.99 290.78 121.59 306.94 111.75C323.1 101.92 341.42 97 361.9 97C378.33 97 393.02 99.83 405.95 105.49C418.88 111.15 429.79 118.89 438.68 128.73C447.57 138.57 454.37 149.81 459.09 162.47C463.8 175.14 466.16 188.6 466.16 202.88C466.16 206.38 466.02 210.02 465.76 213.79C465.49 217.57 464.95 221.06 464.14 224.29H289.97V187.92H438.28L416.46 204.49C419.15 191.29 418.28 179.5 413.83 169.13C409.39 158.76 402.65 150.54 393.63 144.48C384.6 138.42 374.03 135.39 361.91 135.39C349.79 135.39 339.01 138.42 329.58 144.48C320.15 150.54 312.87 159.17 307.76 170.34C302.64 181.52 300.62 195.06 301.7 210.95C300.35 225.77 302.44 238.7 307.96 249.74C313.48 260.79 321.3 269.41 331.4 275.6C341.5 281.8 353.02 284.9 365.95 284.9C378.88 284.9 390.4 281.94 399.69 276.01C408.98 270.09 416.32 262.41 421.71 252.98L458.89 271.16C454.58 281.4 447.91 290.63 438.89 298.84C429.86 307.06 419.09 313.53 406.56 318.24C394.03 322.95 380.36 325.31 365.54 325.31L365.53 325.32Z" fill="#FFFFFF"></path>
    <path d="M490.39 320.47V101.85H534.03V149.13L528.37 141.86C532.95 127.05 541.3 115.86 553.42 108.32C565.54 100.78 579.42 97.01 595.04 97.01C612.55 97.01 628.11 101.66 641.71 110.95C655.31 120.25 664.4 132.57 668.99 147.93L656.06 149.14C662.52 131.63 672.43 118.57 685.76 109.94C699.1 101.32 714.38 97.01 731.63 97.01C746.71 97.01 760.38 100.51 772.65 107.52C784.91 114.53 794.67 124.23 801.95 136.62C809.22 149.02 812.86 163.16 812.86 179.05V320.49H767.2V191.58C767.2 180.54 765.24 171.17 761.34 163.49C757.43 155.81 752.05 149.89 745.18 145.71C738.31 141.54 730.29 139.45 721.14 139.45C711.99 139.45 703.9 141.54 696.89 145.71C689.88 149.89 684.36 155.88 680.32 163.69C676.28 171.51 674.26 180.8 674.26 191.57V320.48H629V191.57C629 180.53 627.04 171.16 623.14 163.48C619.23 155.8 613.85 149.88 606.98 145.7C600.11 141.53 591.96 139.44 582.53 139.44C573.1 139.44 565.29 141.53 558.28 145.7C551.27 149.88 545.82 155.87 541.91 163.68C538 171.5 536.05 180.79 536.05 191.56V320.47H490.39Z" fill="#FFFFFF"></path>
    <path d="M945.41 325.32C923.59 325.32 904.26 320.27 887.42 310.17C870.58 300.07 857.25 286.4 847.41 269.15C837.57 251.91 832.66 232.38 832.66 210.56C832.66 188.74 837.51 169.61 847.21 152.37C856.91 135.13 870.24 121.59 887.22 111.76C904.19 101.93 923.59 97.01 945.41 97.01C960.22 97.01 974.1 99.64 987.03 104.89C999.96 110.14 1011.21 117.35 1020.77 126.51C1030.33 135.67 1037.4 146.31 1041.99 158.44L1001.98 177.03C997.4 165.72 990.06 156.62 979.96 149.75C969.86 142.88 958.34 139.45 945.41 139.45C932.48 139.45 921.9 142.48 912.07 148.54C902.23 154.6 894.49 163.09 888.83 174C883.17 184.91 880.34 197.24 880.34 210.98C880.34 224.72 883.17 237.04 888.83 247.96C894.49 258.87 902.23 267.43 912.07 273.62C921.9 279.82 933.01 282.92 945.41 282.92C958.61 282.92 970.12 279.49 979.96 272.62C989.79 265.75 997.13 256.53 1001.98 244.94L1041.99 263.93C1037.68 275.52 1030.74 285.95 1021.18 295.25C1011.61 304.54 1000.37 311.89 987.44 317.27C974.51 322.66 960.5 325.35 945.41 325.35V325.32Z" fill="#FFFFFF"></path>
  </g>
  <defs>
    <clipPath id="clip0_1_2">
      <rect width="1042" height="326" fill="white"></rect>
    </clipPath>
  </defs>
</svg>
